# xmcd CD database file
#
# Track frame offsets:
#	150
#	16035
#	31181
#	44139
#	55389
#	64566
#	78782
#	95410
#	114187
#	126172
#	137111
#	149953
#
# Disc length: 2191 seconds
#
# Revision: 0
# Processed by: cddbd v1.5.1PL0 Copyright (c) Steve Scherf et al.
# Submitted via: CDex 1.51
#
DISCID=a3088d0c
DTITLE=Edições Convite à Música - Jazz em miúdos
DYEAR=1900
DGENRE=Jazz
TTITLE0=Tantas coisas (My Favorite Things)
TTITLE1=Folhas de outono (Autumn Leaves)
TTITLE2=Vem comigo (All of me)
TTITLE3=Quando estou só (Solitude)
TTITLE4=Um dia o meu príncipe vai chegar (Someday my Prince will come)
TTITLE5=No Verão (Summertime)
TTITLE6=O Palhaço Jarbas (Blue Monk)
TTITLE7=Boneca de Cetim (Satin Doll)
TTITLE8=Não te rales (It don't mean a thing)
TTITLE9=Inesquecível (Unforgettable)
TTITLE10=Lua Azul (Blue Moon)
TTITLE11=Metro, adeus! (Bye, bye, Blackbird)
EXTD=
EXTT0=
EXTT1=
EXTT2=
EXTT3=
EXTT4=
EXTT5=
EXTT6=
EXTT7=
EXTT8=
EXTT9=
EXTT10=
EXTT11=
PLAYORDER=
